<svg data-v-423bf9ae="" xmlns="http://www.w3.org/2000/svg" viewBox="0 0 519 90" class="iconLeft"><!----><!----><!----><g data-v-423bf9ae="" id="3071f8d4-b963-44ee-85ff-bdc8158b7d85" fill="#FFFFFF" transform="matrix(4.8,0,0,4.8,112.51467486303301,-64.96799926757812)"><path d="M16.49 18.26L15.30 19.19L11.90 28.45L10.64 29.16L8.36 22.36L6.17 28.45L4.91 29.16L1.34 19.22L0.01 18.38L0.27 17.89L3.96 17.89L3.96 18.26L2.94 19.04L5.88 27.40L8.05 21.41L7.31 19.18L6.01 18.37L6.24 17.88L10.21 17.88L10.21 18.24L9.00 19.24L11.62 27.36L14.59 19.17L12.04 18.37L12.29 17.88L16.49 17.88L16.49 18.26ZM23.49 28.39L23.24 28.88L20.69 28.88L20.69 27.66L19.11 28.91L19.11 28.91Q18.83 29.02 18.41 29.02L18.41 29.02L18.41 29.02Q17.23 29.02 16.71 28.43L16.71 28.43L16.71 28.43Q16.18 27.85 16.18 27.02L16.18 27.02L16.18 27.02Q16.18 26.52 16.55 26.03L16.55 26.03L16.55 26.03Q16.91 25.55 17.60 25.12L17.60 25.12L20.69 25.12L20.69 24.09L20.69 24.09Q20.69 23.16 20.20 22.78L20.20 22.78L20.20 22.78Q19.70 22.40 18.83 22.40L18.83 22.40L18.83 22.40Q17.98 22.40 16.79 23.51L16.79 23.51L16.37 23.03L18.40 21.42L18.40 21.42Q18.94 21.32 19.68 21.32L19.68 21.32L19.68 21.32Q20.89 21.32 21.56 21.93L21.56 21.93L21.56 21.93Q22.23 22.54 22.23 23.69L22.23 23.69L22.23 27.90L23.49 28.39ZM18.80 27.97L18.80 27.97Q19.68 27.97 20.69 27.15L20.69 27.15L20.69 25.62L18.17 25.62L18.17 25.62Q17.96 25.86 17.89 26.10L17.89 26.10L17.89 26.10Q17.81 26.33 17.81 26.63L17.81 26.63L17.81 26.63Q17.81 27.17 18.08 27.57L18.08 27.57L18.08 27.57Q18.35 27.97 18.80 27.97L18.80 27.97ZM28.45 28.41L28.20 28.90L24.40 28.90L24.40 28.53L25.65 27.57L25.65 18.76L24.40 17.88L24.40 17.51L26.73 16.66L27.19 16.66L27.19 27.89L28.45 28.41ZM33.56 28.41L33.31 28.90L29.51 28.90L29.51 28.53L30.76 27.57L30.76 18.76L29.51 17.88L29.51 17.51L31.84 16.66L32.30 16.66L32.30 27.89L33.56 28.41ZM42.03 26.92L39.48 28.92L39.48 28.92Q38.96 29.02 38.26 29.02L38.26 29.02L38.26 29.02Q37.37 29.02 36.65 28.55L36.65 28.55L36.65 28.55Q35.92 28.07 35.52 27.24L35.52 27.24L35.52 27.24Q35.11 26.42 35.11 25.42L35.11 25.42L35.11 25.42Q35.11 24.35 35.76 23.39L35.76 23.39L35.76 23.39Q36.40 22.44 37.37 21.88L37.37 21.88L37.37 21.88Q38.35 21.32 39.26 21.32L39.26 21.32L39.26 21.32Q40.54 21.32 41.27 22.36L41.27 22.36L41.27 22.36Q41.99 23.39 42 25.07L42 25.07L36.81 25.07L36.81 25.07Q36.88 26.32 37.46 27.13L37.46 27.13L37.46 27.13Q38.04 27.93 39.07 27.93L39.07 27.93L39.07 27.93Q39.98 27.93 41.61 26.43L41.61 26.43L42.03 26.92ZM38.44 22.41L38.44 22.41Q36.88 22.41 36.81 24.57L36.81 24.57L40.19 24.57L40.19 24.57Q40.05 23.77 39.92 23.36L39.92 23.36L39.92 23.36Q39.79 22.95 39.45 22.68L39.45 22.68L39.45 22.68Q39.10 22.41 38.43 22.41L38.43 22.41L38.44 22.41ZM49.11 27.79L47.70 28.91L47.70 28.91Q47.40 29.02 46.98 29.02L46.98 29.02L46.98 29.02Q45.85 29.02 45.33 28.41L45.33 28.41L45.33 28.41Q44.81 27.80 44.81 26.53L44.81 26.53L44.81 22.39L43.30 22.39L43.30 21.85L45.89 18.79L46.35 18.79L46.35 21.88L48.87 21.88L48.87 22.39L46.35 22.39L46.35 26.75L46.35 26.75Q46.35 27.92 47.45 27.92L47.45 27.92L47.45 27.92Q47.74 27.92 48.01 27.79L48.01 27.79L48.01 27.79Q48.29 27.66 48.69 27.31L48.69 27.31L49.11 27.79ZM54.74 27.43L54.74 27.43Q54.74 27.01 54.30 26.68L54.30 26.68L54.30 26.68Q53.86 26.35 52.92 25.86L52.92 25.86L52.92 25.86Q51.83 25.31 51.25 24.85L51.25 24.85L51.25 24.85Q50.68 24.39 50.68 23.76L50.68 23.76L50.68 23.76Q50.68 23.25 51.09 22.68L51.09 22.68L51.09 22.68Q51.51 22.11 52.10 21.71L52.10 21.71L52.10 21.71Q52.70 21.32 53.21 21.32L53.21 21.32L53.21 21.32Q53.83 21.32 54.66 21.48L54.66 21.48L54.66 21.48Q55.48 21.64 55.86 21.84L55.86 21.84L55.86 23.97L55.40 23.97L55.40 23.97Q54.92 23.07 54.33 22.57L54.33 22.57L54.33 22.57Q53.73 22.06 53.10 22.06L53.10 22.06L53.10 22.06Q52.63 22.06 52.35 22.32L52.35 22.32L52.35 22.32Q52.07 22.57 52.07 22.93L52.07 22.93L52.07 22.93Q52.07 23.39 52.52 23.74L52.52 23.74L52.52 23.74Q52.98 24.08 53.94 24.57L53.94 24.57L53.94 24.57Q54.66 24.93 55.09 25.19L55.09 25.19L55.09 25.19Q55.52 25.45 55.83 25.80L55.83 25.80L55.83 25.80Q56.13 26.15 56.13 26.59L56.13 26.59L56.13 26.59Q56.13 27.10 55.69 27.67L55.69 27.67L55.69 27.67Q55.26 28.24 54.64 28.63L54.64 28.63L54.64 28.63Q54.03 29.02 53.51 29.02L53.51 29.02L53.51 29.02Q52.84 29.02 51.91 28.85L51.91 28.85L51.91 28.85Q50.99 28.69 50.60 28.50L50.60 28.50L50.60 26.40L51.06 26.40L51.06 26.40Q51.55 27.30 52.24 27.79L52.24 27.79L52.24 27.79Q52.93 28.28 53.63 28.28L53.63 28.28L53.63 28.28Q54.12 28.28 54.43 28.03L54.43 28.03L54.43 28.03Q54.74 27.78 54.74 27.43L54.74 27.43ZM63.38 21.31L63.38 21.31Q64.11 21.31 64.70 21.79L64.70 21.79L64.70 21.79Q65.30 22.27 65.63 23.10L65.63 23.10L65.63 23.10Q65.97 23.93 65.97 24.92L65.97 24.92L65.97 24.92Q65.97 26.00 65.32 26.94L65.32 26.94L65.32 26.94Q64.68 27.89 63.71 28.45L63.71 28.45L63.71 28.45Q62.73 29.01 61.82 29.01L61.82 29.01L61.82 29.01Q61.24 29.01 60.73 28.75L60.73 28.75L60.73 28.75Q60.23 28.49 59.85 28.01L59.85 28.01L59.26 28.88L58.80 28.88L58.80 18.76L57.55 17.88L57.55 17.51L59.88 16.66L60.34 16.66L60.34 22.96L62.27 21.43L62.27 21.43Q62.72 21.32 63.36 21.32L63.36 21.32L63.38 21.31ZM62.62 27.93L62.62 27.93Q63.45 27.93 63.86 27.34L63.86 27.34L63.86 27.34Q64.27 26.75 64.27 25.61L64.27 25.61L64.27 25.61Q64.27 24.26 63.85 23.33L63.85 23.33L63.85 23.33Q63.43 22.40 62.68 22.40L62.68 22.40L62.68 22.40Q62.13 22.40 61.62 22.62L61.62 22.62L61.62 22.62Q61.11 22.83 60.35 23.53L60.35 23.53L60.35 26.05L60.35 26.05Q60.35 26.85 60.94 27.38L60.94 27.38L60.94 27.38Q61.53 27.92 62.64 27.92L62.64 27.92L62.62 27.93ZM72.13 21.32L72.13 21.32Q73.04 21.32 73.75 21.80L73.75 21.80L73.75 21.80Q74.47 22.29 74.87 23.11L74.87 23.11L74.87 23.11Q75.28 23.94 75.28 24.93L75.28 24.93L75.28 24.93Q75.28 26.01 74.63 26.96L74.63 26.96L74.63 26.96Q73.99 27.90 73.02 28.46L73.02 28.46L73.02 28.46Q72.04 29.02 71.13 29.02L71.13 29.02L71.13 29.02Q70.24 29.02 69.52 28.55L69.52 28.55L69.52 28.55Q68.80 28.07 68.39 27.24L68.39 27.24L68.39 27.24Q67.98 26.42 67.98 25.42L67.98 25.42L67.98 25.42Q67.98 24.35 68.63 23.39L68.63 23.39L68.63 23.39Q69.27 22.44 70.25 21.88L70.25 21.88L70.25 21.88Q71.22 21.32 72.13 21.32L72.13 21.32ZM71.32 22.41L71.32 22.41Q69.65 22.41 69.65 24.75L69.65 24.75L69.65 24.75Q69.65 26.11 70.24 27.02L70.24 27.02L70.24 27.02Q70.83 27.93 71.95 27.93L71.95 27.93L71.95 27.93Q73.60 27.93 73.60 25.59L73.60 25.59L73.60 25.59Q73.60 24.23 73.01 23.32L73.01 23.32L73.01 23.32Q72.42 22.41 71.32 22.41L71.32 22.41ZM84.62 28.39L84.36 28.88L82.40 28.88L80.15 25.90L78.54 27.41L79.84 28.41L79.59 28.90L76.57 28.90L76.57 28.53L79.79 25.42L77.73 22.74L76.52 21.95L76.76 21.46L78.72 21.46L80.92 24.40L82.47 22.93L81.17 21.94L81.41 21.45L84.45 21.45L84.45 21.81L81.28 24.88L83.40 27.62L84.62 28.39Z"></path></g><!----><g data-v-423bf9ae="" id="96e15217-ee40-43a2-90d8-32061af78611" transform="matrix(1.1538461538461537,0,0,1.1538461538461537,-10.799957568828873,-13.84615384615384)" stroke="none" fill="#BF557B"><path d="M9.871 29.925L47.001 50v39.955L9.871 65.912zM89.963 29.925v35.987L53 90V50zM10 24.098l40.12 20.061 39.972-20.061L52.266 12z"></path></g><!----></svg>